<?xml version="1.0" encoding="UTF-8"?>
<svg id="Livello_2" data-name="Livello 2" xmlns="http://www.w3.org/2000/svg" viewBox="0 0 977.01 312.54">
  <defs>
    <style>
      .cls-1 {
        fill: #46ae5e;
      }

      .cls-2 {
        fill: #3675ba;
      }

      .cls-3 {
        fill: #1d1d1b;
      }

      .cls-4 {
        fill: #f8af1b;
      }
    </style>
  </defs>
  <g id="roll-up_Ragusa" data-name="roll-up Ragusa">
    <g>
      <path class="cls-1" d="M440.62,82.22c-1.08,0-1.94-.33-2.59-.98-.65-.65-.98-1.56-.98-2.71V4.04c0-1.23.31-2.15.92-2.77.61-.61,1.46-.92,2.54-.92,1.15,0,2.04.31,2.65.92.61.62.92,1.54.92,2.77v71.84h39.67c1.15,0,2.02.27,2.59.81.58.54.87,1.31.87,2.31,0,1.08-.29,1.88-.87,2.42-.58.54-1.44.81-2.59.81h-43.13Z"/>
      <path class="cls-1" d="M536.64,82.91c-1.08,0-1.92-.33-2.54-.98-.62-.65-.92-1.56-.92-2.71V3.92c0-1.23.31-2.15.92-2.77.61-.61,1.46-.92,2.54-.92,1.15,0,2.04.31,2.65.92.61.62.92,1.54.92,2.77v75.3c0,1.15-.29,2.06-.87,2.71-.58.65-1.48.98-2.71.98Z"/>
      <path class="cls-1" d="M623.52,82.91c-1.08,0-1.98-.29-2.71-.86-.73-.58-1.37-1.4-1.9-2.48l-32.4-74.84c-.31-1-.38-1.83-.23-2.48.15-.65.54-1.15,1.15-1.5.61-.35,1.31-.52,2.08-.52,1.08,0,1.88.23,2.42.69.54.46,1.04,1.15,1.5,2.08l31.83,74.03h-3.23l31.83-74.03c.38-.92.88-1.61,1.5-2.08.61-.46,1.42-.69,2.42-.69.85,0,1.54.19,2.08.58.54.39.86.9.98,1.56.12.65-.02,1.44-.4,2.36l-32.4,74.84c-.39,1.08-.94,1.9-1.67,2.48-.73.58-1.67.86-2.82.86Z"/>
      <path class="cls-1" d="M710.3,82.91c-1.08,0-1.92-.33-2.54-.98-.62-.65-.92-1.56-.92-2.71V3.92c0-1.23.31-2.15.92-2.77.61-.61,1.46-.92,2.54-.92,1.15,0,2.04.31,2.65.92.61.62.92,1.54.92,2.77v75.3c0,1.15-.29,2.06-.87,2.71-.58.65-1.48.98-2.71.98Z"/>
      <path class="cls-1" d="M763.2,82.91c-1.08,0-1.9-.31-2.48-.92-.58-.61-.86-1.5-.86-2.65V3.92c0-1.23.27-2.15.81-2.77.54-.61,1.27-.92,2.19-.92,1,0,1.73.15,2.19.46.46.31.96.88,1.5,1.73l53.04,71.38h-2.65V3.69c0-1.15.29-2.02.87-2.59.58-.58,1.4-.87,2.48-.87,1,0,1.79.29,2.36.87.58.58.87,1.44.87,2.59v75.64c0,1.15-.25,2.04-.75,2.65-.5.61-1.21.92-2.13.92-.85,0-1.54-.17-2.08-.52-.54-.35-1.12-.9-1.73-1.67l-52.93-71.38h2.54v69.99c0,1.15-.29,2.04-.87,2.65-.58.61-1.37.92-2.36.92Z"/>
      <path class="cls-1" d="M908.81,83.14c-8.53,0-15.72-1.63-21.56-4.9-5.84-3.27-10.26-8.01-13.26-14.24-3-6.23-4.5-13.72-4.5-22.49,0-6.46.85-12.24,2.54-17.35,1.69-5.11,4.13-9.46,7.32-13.03,3.19-3.57,7.11-6.32,11.76-8.24,4.65-1.92,9.94-2.88,15.86-2.88,5.15,0,10.03.73,14.64,2.19,4.61,1.46,8.61,3.77,11.99,6.92.69.62,1.11,1.25,1.27,1.9.15.65.11,1.31-.12,1.96-.23.65-.6,1.19-1.1,1.61-.5.42-1.08.65-1.73.69-.65.04-1.37-.21-2.13-.75-3.15-2.84-6.63-4.88-10.44-6.11-3.8-1.23-7.98-1.84-12.51-1.84-6.38,0-11.8,1.37-16.26,4.09-4.46,2.73-7.84,6.71-10.15,11.93-2.31,5.23-3.46,11.53-3.46,18.91,0,11.46,2.65,20.18,7.96,26.18,5.3,6,13.3,8.99,23.98,8.99,4,0,7.84-.38,11.53-1.15,3.69-.77,7.15-1.84,10.38-3.23l-1.73,4.84v-30.56h-18.22c-1.08,0-1.9-.29-2.48-.86-.58-.58-.87-1.33-.87-2.25s.29-1.63.87-2.13c.58-.5,1.4-.75,2.48-.75h21.33c1.08,0,1.88.29,2.42.87.54.58.81,1.37.81,2.36v31.02c0,.92-.13,1.69-.4,2.31-.27.62-.75,1.08-1.44,1.38-3.08,1.31-6.9,2.4-11.47,3.29-4.57.88-9.01,1.33-13.32,1.33Z"/>
      <g>
        <path class="cls-3" d="M16.33,307.41c-3.39,0-6.3-.6-8.73-1.81-2.44-1.21-4.31-2.99-5.62-5.34-1.31-2.35-1.97-5.24-1.97-8.66,0-3.21.44-6.14,1.32-8.79.88-2.64,2.15-4.92,3.81-6.84,1.66-1.92,3.66-3.4,6.01-4.46,2.35-1.05,5.03-1.58,8.03-1.58,2.21,0,4.28.3,6.22.91,1.93.6,3.56,1.5,4.87,2.67.45.35.73.74.86,1.19.12.45.12.86,0,1.24-.12.38-.32.71-.6.98-.28.28-.62.43-1.04.47-.42.04-.86-.14-1.35-.52-1.21-1.07-2.59-1.86-4.15-2.36-1.56-.5-3.25-.75-5.08-.75-3.01,0-5.58.74-7.72,2.23-2.14,1.49-3.79,3.56-4.95,6.22-1.16,2.66-1.74,5.75-1.74,9.28,0,4.11,1.04,7.16,3.14,9.15,2.09,1.99,5.14,2.98,9.15,2.98,1.69,0,3.26-.16,4.69-.47,1.43-.31,2.79-.71,4.07-1.19l-1.3,2.23,2.07-12.91h-7.41c-.62,0-1.11-.13-1.45-.39-.35-.26-.52-.61-.52-1.06,0-.62.2-1.1.6-1.42.4-.33.91-.49,1.53-.49h9.33c.66,0,1.16.19,1.5.57.34.38.45.92.31,1.61l-2.12,13.53c-.07.55-.23.99-.47,1.32-.24.33-.6.58-1.09.75-1.35.52-2.94.93-4.77,1.24s-3.65.47-5.44.47Z"/>
        <path class="cls-3" d="M37.79,307.3c-.66,0-1.13-.22-1.43-.65-.29-.43-.39-1.04-.29-1.84l3.42-21.36c.1-.69.35-1.21.75-1.55.4-.35.94-.52,1.63-.52s1.14.21,1.45.62c.31.41.4,1.02.26,1.81l-3.37,21.41c-.1.69-.36,1.21-.75,1.56-.4.34-.96.52-1.68.52ZM42.92,275.68c-.83,0-1.45-.21-1.87-.62-.42-.41-.59-.98-.52-1.71.03-.9.34-1.59.91-2.07.57-.48,1.32-.73,2.25-.73.83,0,1.45.2,1.87.6.42.4.59.98.52,1.74-.07.9-.38,1.59-.93,2.07-.55.48-1.3.73-2.23.73Z"/>
        <path class="cls-3" d="M59.25,307.41c-2.25,0-4.19-.45-5.83-1.35-1.64-.9-2.9-2.18-3.78-3.84-.88-1.66-1.32-3.63-1.32-5.91,0-2.14.32-4.12.96-5.93.64-1.81,1.55-3.41,2.72-4.79,1.17-1.38,2.57-2.44,4.17-3.19,1.61-.74,3.43-1.11,5.47-1.11,2.25,0,4.19.45,5.83,1.35,1.64.9,2.89,2.17,3.76,3.81.86,1.64,1.3,3.62,1.3,5.93,0,2.14-.31,4.12-.93,5.94-.62,1.81-1.52,3.4-2.7,4.77s-2.57,2.43-4.2,3.19c-1.62.76-3.44,1.14-5.44,1.14ZM59.4,304.04c1.9,0,3.52-.54,4.85-1.61,1.33-1.07,2.33-2.5,3.01-4.3s1.01-3.77,1.01-5.91c0-2.49-.6-4.37-1.79-5.65s-2.86-1.92-5-1.92c-1.9,0-3.52.54-4.85,1.61-1.33,1.07-2.34,2.49-3.03,4.25-.69,1.76-1.04,3.75-1.04,5.96,0,2.45.6,4.33,1.81,5.62s2.89,1.94,5.03,1.94Z"/>
        <path class="cls-3" d="M86.1,307.3c-.73,0-1.29-.18-1.68-.54-.4-.36-.7-.91-.91-1.63l-5.65-20.73c-.14-.59-.16-1.11-.05-1.55.1-.45.33-.8.67-1.06.34-.26.79-.39,1.35-.39.59,0,1.04.14,1.35.41.31.28.55.78.73,1.5l5.13,20.53h-1.4l12.03-20.99c.31-.52.63-.89.96-1.11s.77-.34,1.32-.34.99.13,1.32.39.5.6.52,1.01c.02.42-.13.88-.44,1.4l-12.6,21.41c-.35.59-.73,1.02-1.14,1.3-.41.28-.92.42-1.5.42Z"/>
        <path class="cls-3" d="M111.29,307.41c-1.45,0-2.81-.33-4.07-.99-1.26-.66-2.27-1.55-3.03-2.7-.76-1.14-1.14-2.44-1.14-3.89,0-1.8.49-3.24,1.48-4.33.98-1.09,2.53-1.89,4.64-2.41,2.11-.52,4.82-.78,8.14-.78h4.15l-.42,2.75h-3.16c-2.66,0-4.76.14-6.3.42-1.54.28-2.63.74-3.29,1.4s-.99,1.55-.99,2.7c0,1.52.51,2.68,1.53,3.47,1.02.8,2.19,1.19,3.5,1.19s2.46-.28,3.55-.83c1.09-.55,2.01-1.37,2.77-2.46.76-1.09,1.26-2.38,1.5-3.86l.98-6.32c.34-2,.09-3.52-.75-4.56s-2.38-1.55-4.59-1.55c-1.28,0-2.49.12-3.63.36-1.14.24-2.28.69-3.42,1.35-.45.24-.86.35-1.24.31-.38-.03-.69-.18-.93-.44-.24-.26-.38-.56-.41-.91-.04-.35.05-.69.26-1.04.21-.34.57-.66,1.09-.93,1.31-.73,2.74-1.25,4.28-1.58,1.54-.33,3.03-.49,4.48-.49,2.35,0,4.22.44,5.62,1.32s2.36,2.12,2.88,3.71c.52,1.59.6,3.46.26,5.6l-2.12,13.32c-.07.69-.3,1.21-.7,1.56-.4.34-.92.52-1.58.52-.62,0-1.08-.21-1.37-.62-.29-.42-.39-1-.29-1.76l.67-4.2.41.52c-.45,1.38-1.13,2.53-2.05,3.45s-1.96,1.6-3.14,2.05c-1.18.45-2.37.67-3.58.67Z"/>
        <path class="cls-3" d="M132.59,307.25c-.66,0-1.13-.22-1.43-.67-.29-.45-.39-1.05-.29-1.81l3.37-21.3c.14-.69.41-1.21.8-1.55s.94-.52,1.63-.52c.62,0,1.08.2,1.37.6.29.4.37.98.23,1.74l-.67,4.35-.41-.62c.86-1.97,2.13-3.49,3.81-4.56,1.68-1.07,3.67-1.61,5.99-1.61,1.87,0,3.43.37,4.69,1.11,1.26.74,2.16,1.88,2.7,3.42.54,1.54.61,3.5.23,5.88l-2.12,13.53c-.07.69-.31,1.2-.73,1.53-.42.33-.97.49-1.66.49s-1.14-.22-1.45-.65c-.31-.43-.42-1.03-.31-1.79l2.07-13.11c.41-2.35.22-4.1-.57-5.26-.8-1.16-2.16-1.74-4.09-1.74-2.52,0-4.53.78-6.01,2.33-1.49,1.56-2.44,3.63-2.85,6.22l-1.87,11.92c-.21,1.38-1.02,2.07-2.44,2.07Z"/>
        <path class="cls-3" d="M162.13,307.3c-.66,0-1.13-.22-1.43-.65-.29-.43-.39-1.04-.29-1.84l3.42-21.36c.1-.69.35-1.21.75-1.55.4-.35.94-.52,1.63-.52s1.14.21,1.45.62c.31.41.4,1.02.26,1.81l-3.37,21.41c-.1.69-.36,1.21-.75,1.56-.4.34-.96.52-1.68.52ZM167.27,275.68c-.83,0-1.45-.21-1.87-.62-.42-.41-.59-.98-.52-1.71.03-.9.34-1.59.91-2.07.57-.48,1.32-.73,2.25-.73.83,0,1.45.2,1.87.6.42.4.59.98.52,1.74-.07.9-.38,1.59-.93,2.07-.55.48-1.3.73-2.23.73Z"/>
        <path class="cls-3" d="M174.21,311.97c-.42.38-.81.57-1.19.57s-.68-.11-.91-.34-.34-.53-.34-.91.19-.76.57-1.14c.73-.69,1.25-1.36,1.58-2,.33-.64.54-1.34.65-2.1l.36,1.09c-.9,0-1.62-.27-2.18-.8-.55-.54-.83-1.22-.83-2.05s.25-1.51.75-2.05c.5-.54,1.18-.8,2.05-.8s1.53.29,2,.86c.47.57.7,1.36.7,2.36,0,.9-.12,1.78-.36,2.64-.24.86-.61,1.68-1.09,2.46-.48.78-1.07,1.51-1.76,2.2Z"/>
        <path class="cls-3" d="M200.59,307.3c-.73,0-1.25-.23-1.58-.67-.33-.45-.42-1.09-.29-1.92l5.18-32.5c.1-.73.35-1.27.75-1.63.4-.36.94-.54,1.63-.54s1.24.22,1.55.65c.31.43.4,1.08.26,1.94l-5.18,32.5c-.1.69-.34,1.23-.7,1.61s-.91.57-1.63.57Z"/>
        <path class="cls-3" d="M213.34,307.25c-.66,0-1.13-.22-1.43-.67-.29-.45-.39-1.05-.29-1.81l3.37-21.3c.14-.69.41-1.21.8-1.55s.94-.52,1.63-.52c.62,0,1.08.2,1.37.6.29.4.37.98.23,1.74l-.67,4.35-.41-.62c.86-1.97,2.13-3.49,3.81-4.56,1.68-1.07,3.67-1.61,5.99-1.61,1.87,0,3.43.37,4.69,1.11,1.26.74,2.16,1.88,2.7,3.42.54,1.54.61,3.5.23,5.88l-2.12,13.53c-.07.69-.31,1.2-.73,1.53-.42.33-.97.49-1.66.49s-1.14-.22-1.45-.65c-.31-.43-.42-1.03-.31-1.79l2.07-13.11c.41-2.35.22-4.1-.57-5.26-.8-1.16-2.16-1.74-4.09-1.74-2.52,0-4.53.78-6.01,2.33-1.49,1.56-2.44,3.63-2.85,6.22l-1.87,11.92c-.21,1.38-1.02,2.07-2.44,2.07Z"/>
        <path class="cls-3" d="M242.94,307.25c-.66,0-1.13-.22-1.43-.67-.29-.45-.39-1.05-.29-1.81l3.37-21.3c.14-.69.41-1.21.8-1.55s.94-.52,1.63-.52c.62,0,1.08.2,1.37.6.29.4.37.98.23,1.74l-.67,4.35-.41-.62c.86-1.97,2.13-3.49,3.81-4.56,1.68-1.07,3.67-1.61,5.99-1.61,1.87,0,3.43.37,4.69,1.11,1.26.74,2.16,1.88,2.7,3.42.54,1.54.61,3.5.23,5.88l-2.12,13.53c-.07.69-.31,1.2-.73,1.53-.42.33-.97.49-1.66.49s-1.14-.22-1.45-.65c-.31-.43-.42-1.03-.31-1.79l2.07-13.11c.41-2.35.22-4.1-.57-5.26-.8-1.16-2.16-1.74-4.09-1.74-2.52,0-4.53.78-6.01,2.33-1.49,1.56-2.44,3.63-2.85,6.22l-1.87,11.92c-.21,1.38-1.02,2.07-2.44,2.07Z"/>
        <path class="cls-3" d="M281.76,307.41c-2.25,0-4.19-.45-5.83-1.35-1.64-.9-2.9-2.18-3.78-3.84-.88-1.66-1.32-3.63-1.32-5.91,0-2.14.32-4.12.96-5.93.64-1.81,1.55-3.41,2.72-4.79,1.17-1.38,2.57-2.44,4.17-3.19,1.61-.74,3.43-1.11,5.47-1.11,2.25,0,4.19.45,5.83,1.35,1.64.9,2.89,2.17,3.76,3.81.86,1.64,1.3,3.62,1.3,5.93,0,2.14-.31,4.12-.93,5.94-.62,1.81-1.52,3.4-2.7,4.77s-2.57,2.43-4.2,3.19c-1.62.76-3.44,1.14-5.44,1.14ZM281.92,304.04c1.9,0,3.52-.54,4.85-1.61,1.33-1.07,2.33-2.5,3.01-4.3s1.01-3.77,1.01-5.91c0-2.49-.6-4.37-1.79-5.65s-2.86-1.92-5-1.92c-1.9,0-3.52.54-4.85,1.61-1.33,1.07-2.34,2.49-3.03,4.25-.69,1.76-1.04,3.75-1.04,5.96,0,2.45.6,4.33,1.81,5.62s2.89,1.94,5.03,1.94Z"/>
        <path class="cls-3" d="M308.61,307.3c-.73,0-1.29-.18-1.68-.54-.4-.36-.7-.91-.91-1.63l-5.65-20.73c-.14-.59-.16-1.11-.05-1.55.1-.45.33-.8.67-1.06.34-.26.79-.39,1.35-.39.59,0,1.04.14,1.35.41.31.28.55.78.73,1.5l5.13,20.53h-1.4l12.03-20.99c.31-.52.63-.89.96-1.11s.77-.34,1.32-.34.99.13,1.32.39.5.6.52,1.01c.02.42-.13.88-.44,1.4l-12.6,21.41c-.35.59-.73,1.02-1.14,1.3-.41.28-.92.42-1.5.42Z"/>
        <path class="cls-3" d="M333.81,307.41c-1.45,0-2.81-.33-4.07-.99-1.26-.66-2.27-1.55-3.03-2.7-.76-1.14-1.14-2.44-1.14-3.89,0-1.8.49-3.24,1.48-4.33.98-1.09,2.53-1.89,4.64-2.41,2.11-.52,4.82-.78,8.14-.78h4.15l-.42,2.75h-3.16c-2.66,0-4.76.14-6.3.42-1.54.28-2.63.74-3.29,1.4s-.99,1.55-.99,2.7c0,1.52.51,2.68,1.53,3.47,1.02.8,2.19,1.19,3.5,1.19s2.46-.28,3.55-.83c1.09-.55,2.01-1.37,2.77-2.46.76-1.09,1.26-2.38,1.5-3.86l.98-6.32c.34-2,.09-3.52-.75-4.56s-2.38-1.55-4.59-1.55c-1.28,0-2.49.12-3.63.36-1.14.24-2.28.69-3.42,1.35-.45.24-.86.35-1.24.31-.38-.03-.69-.18-.93-.44-.24-.26-.38-.56-.41-.91-.04-.35.05-.69.26-1.04.21-.34.57-.66,1.09-.93,1.31-.73,2.74-1.25,4.28-1.58,1.54-.33,3.03-.49,4.48-.49,2.35,0,4.22.44,5.62,1.32s2.36,2.12,2.88,3.71c.52,1.59.6,3.46.26,5.6l-2.12,13.32c-.07.69-.3,1.21-.7,1.56-.4.34-.92.52-1.58.52-.62,0-1.08-.21-1.37-.62-.29-.42-.39-1-.29-1.76l.67-4.2.41.52c-.45,1.38-1.13,2.53-2.05,3.45s-1.96,1.6-3.14,2.05c-1.18.45-2.37.67-3.58.67Z"/>
        <path class="cls-3" d="M353.97,306.94c-.45,0-.82-.09-1.11-.29-.29-.19-.51-.44-.65-.75-.14-.31-.16-.65-.05-1.01.1-.36.31-.73.62-1.11l17.73-19.85.16,1.04h-13.58c-.55,0-.98-.12-1.27-.36-.29-.24-.44-.57-.44-.99,0-.59.17-1.04.52-1.37.34-.33.81-.49,1.4-.49h15.76c.45,0,.83.1,1.14.29.31.19.52.44.62.75.1.31.09.67-.03,1.06-.12.4-.37.8-.75,1.22l-17.67,19.8-.16-1.19h14.25c1.17,0,1.76.45,1.76,1.35,0,.59-.17,1.05-.52,1.4s-.81.52-1.4.52h-16.33Z"/>
        <path class="cls-3" d="M379.21,307.3c-.66,0-1.13-.22-1.43-.65-.29-.43-.39-1.04-.29-1.84l3.42-21.36c.1-.69.35-1.21.75-1.55.4-.35.94-.52,1.63-.52s1.14.21,1.45.62c.31.41.4,1.02.26,1.81l-3.37,21.41c-.1.69-.36,1.21-.75,1.56-.4.34-.96.52-1.68.52ZM384.34,275.68c-.83,0-1.45-.21-1.87-.62-.42-.41-.59-.98-.52-1.71.03-.9.34-1.59.91-2.07.57-.48,1.32-.73,2.25-.73.83,0,1.45.2,1.87.6.42.4.59.98.52,1.74-.07.9-.38,1.59-.93,2.07-.55.48-1.3.73-2.23.73Z"/>
        <path class="cls-3" d="M400.67,307.41c-2.25,0-4.19-.45-5.83-1.35-1.64-.9-2.9-2.18-3.78-3.84-.88-1.66-1.32-3.63-1.32-5.91,0-2.14.32-4.12.96-5.93.64-1.81,1.55-3.41,2.72-4.79,1.17-1.38,2.57-2.44,4.17-3.19,1.61-.74,3.43-1.11,5.47-1.11,2.25,0,4.19.45,5.83,1.35,1.64.9,2.89,2.17,3.76,3.81.86,1.64,1.3,3.62,1.3,5.93,0,2.14-.31,4.12-.93,5.94-.62,1.81-1.52,3.4-2.7,4.77s-2.57,2.43-4.2,3.19c-1.62.76-3.44,1.14-5.44,1.14ZM400.83,304.04c1.9,0,3.52-.54,4.85-1.61,1.33-1.07,2.33-2.5,3.01-4.3s1.01-3.77,1.01-5.91c0-2.49-.6-4.37-1.79-5.65s-2.86-1.92-5-1.92c-1.9,0-3.52.54-4.85,1.61-1.33,1.07-2.34,2.49-3.03,4.25-.69,1.76-1.04,3.75-1.04,5.96,0,2.45.6,4.33,1.81,5.62s2.89,1.94,5.03,1.94Z"/>
        <path class="cls-3" d="M420.42,307.25c-.66,0-1.13-.22-1.43-.67-.29-.45-.39-1.05-.29-1.81l3.37-21.3c.14-.69.41-1.21.8-1.55s.94-.52,1.63-.52c.62,0,1.08.2,1.37.6.29.4.37.98.23,1.74l-.67,4.35-.41-.62c.86-1.97,2.13-3.49,3.81-4.56,1.68-1.07,3.67-1.61,5.99-1.61,1.87,0,3.43.37,4.69,1.11,1.26.74,2.16,1.88,2.7,3.42.54,1.54.61,3.5.23,5.88l-2.12,13.53c-.07.69-.31,1.2-.73,1.53-.42.33-.97.49-1.66.49s-1.14-.22-1.45-.65c-.31-.43-.42-1.03-.31-1.79l2.07-13.11c.41-2.35.22-4.1-.57-5.26-.8-1.16-2.16-1.74-4.09-1.74-2.52,0-4.53.78-6.01,2.33-1.49,1.56-2.44,3.63-2.85,6.22l-1.87,11.92c-.21,1.38-1.02,2.07-2.44,2.07Z"/>
        <path class="cls-3" d="M460.02,307.41c-2.38,0-4.46-.45-6.22-1.35-1.76-.9-3.12-2.19-4.07-3.86-.95-1.67-1.43-3.65-1.43-5.93,0-2.73.55-5.23,1.66-7.49,1.11-2.26,2.66-4.08,4.67-5.44,2-1.36,4.39-2.05,7.15-2.05,1.97,0,3.62.35,4.95,1.04,1.33.69,2.39,1.62,3.19,2.8.79,1.18,1.31,2.51,1.55,4.02.24,1.5.28,3.05.1,4.64-.07.59-.22.98-.47,1.17s-.62.29-1.14.29h-18.4l.42-2.75h17l-.93.67c.24-1.62.19-3.09-.16-4.41-.35-1.31-1.02-2.37-2.02-3.16-1-.79-2.38-1.19-4.15-1.19-1.87,0-3.42.42-4.67,1.27-1.24.85-2.22,1.93-2.93,3.24-.71,1.31-1.18,2.68-1.43,4.09l-.21,1.24c-.48,2.94-.04,5.3,1.35,7.1,1.38,1.8,3.51,2.7,6.38,2.7,1.24,0,2.45-.16,3.63-.47,1.17-.31,2.28-.81,3.32-1.5.48-.31.91-.46,1.27-.44s.66.14.88.36c.22.23.36.5.42.83.05.33,0,.67-.16,1.04-.16.36-.44.7-.86,1.01-1.17.83-2.56,1.46-4.15,1.89-1.59.43-3.11.65-4.56.65Z"/>
        <path class="cls-3" d="M501.28,307.41c-2.38,0-4.46-.45-6.22-1.35-1.76-.9-3.12-2.19-4.07-3.86-.95-1.67-1.43-3.65-1.43-5.93,0-2.73.55-5.23,1.66-7.49,1.11-2.26,2.66-4.08,4.67-5.44,2-1.36,4.39-2.05,7.15-2.05,1.97,0,3.62.35,4.95,1.04,1.33.69,2.39,1.62,3.19,2.8.79,1.18,1.31,2.51,1.55,4.02.24,1.5.28,3.05.1,4.64-.07.59-.22.98-.47,1.17s-.62.29-1.14.29h-18.4l.42-2.75h17l-.93.67c.24-1.62.19-3.09-.16-4.41-.35-1.31-1.02-2.37-2.02-3.16-1-.79-2.38-1.19-4.15-1.19-1.87,0-3.42.42-4.67,1.27-1.24.85-2.22,1.93-2.93,3.24-.71,1.31-1.18,2.68-1.43,4.09l-.21,1.24c-.48,2.94-.04,5.3,1.35,7.1,1.38,1.8,3.51,2.7,6.38,2.7,1.24,0,2.45-.16,3.63-.47,1.17-.31,2.28-.81,3.32-1.5.48-.31.91-.46,1.27-.44s.66.14.88.36c.22.23.36.5.42.83.05.33,0,.67-.16,1.04-.16.36-.44.7-.86,1.01-1.17.83-2.56,1.46-4.15,1.89-1.59.43-3.11.65-4.56.65Z"/>
        <path class="cls-3" d="M548.34,307.41c-3.11,0-5.85-.6-8.22-1.79-2.37-1.19-4.22-3-5.57-5.42-1.35-2.42-2.02-5.48-2.02-9.17,0-3.01.43-5.79,1.3-8.34.86-2.56,2.12-4.79,3.76-6.69,1.64-1.9,3.63-3.39,5.96-4.46,2.33-1.07,4.95-1.61,7.85-1.61,2.18,0,4.21.32,6.09.96,1.88.64,3.52,1.56,4.9,2.77.41.35.67.73.78,1.14s.09.81-.05,1.19c-.14.38-.36.71-.65.98-.29.28-.63.42-1.01.44-.38.02-.78-.13-1.19-.44-1.35-1.14-2.75-1.95-4.2-2.44-1.45-.48-3.06-.73-4.82-.73-2.94,0-5.46.74-7.57,2.23-2.11,1.49-3.73,3.52-4.87,6.09-1.14,2.58-1.71,5.5-1.71,8.79,0,2.97.47,5.39,1.4,7.26.93,1.87,2.26,3.22,3.99,4.07,1.73.85,3.82,1.27,6.27,1.27,1.59,0,3.08-.23,4.46-.7,1.38-.47,2.76-1.23,4.15-2.31.45-.31.87-.45,1.27-.41s.73.18,1.01.44.47.57.57.93c.1.36.09.75-.05,1.17-.14.41-.41.78-.83,1.09-1.59,1.24-3.32,2.17-5.18,2.77s-3.8.91-5.8.91Z"/>
        <path class="cls-3" d="M574.99,307.41c-2.25,0-4.19-.45-5.83-1.35-1.64-.9-2.9-2.18-3.78-3.84-.88-1.66-1.32-3.63-1.32-5.91,0-2.14.32-4.12.96-5.93.64-1.81,1.55-3.41,2.72-4.79,1.17-1.38,2.57-2.44,4.17-3.19,1.61-.74,3.43-1.11,5.47-1.11,2.25,0,4.19.45,5.83,1.35,1.64.9,2.89,2.17,3.76,3.81.86,1.64,1.3,3.62,1.3,5.93,0,2.14-.31,4.12-.93,5.94-.62,1.81-1.52,3.4-2.7,4.77s-2.57,2.43-4.2,3.19c-1.62.76-3.44,1.14-5.44,1.14ZM575.14,304.04c1.9,0,3.52-.54,4.85-1.61,1.33-1.07,2.33-2.5,3.01-4.3s1.01-3.77,1.01-5.91c0-2.49-.6-4.37-1.79-5.65s-2.86-1.92-5-1.92c-1.9,0-3.52.54-4.85,1.61-1.33,1.07-2.34,2.49-3.03,4.25-.69,1.76-1.04,3.75-1.04,5.96,0,2.45.6,4.33,1.81,5.62s2.89,1.94,5.03,1.94Z"/>
        <path class="cls-3" d="M594.73,307.25c-.66,0-1.13-.22-1.43-.67-.29-.45-.39-1.05-.29-1.81l3.37-21.3c.14-.69.41-1.21.8-1.55s.94-.52,1.63-.52c.62,0,1.08.2,1.37.6.29.4.37.98.23,1.74l-.67,4.35-.41-.62c.86-1.97,2.13-3.49,3.81-4.56,1.68-1.07,3.67-1.61,5.99-1.61,1.87,0,3.43.37,4.69,1.11,1.26.74,2.16,1.88,2.7,3.42.54,1.54.61,3.5.23,5.88l-2.12,13.53c-.07.69-.31,1.2-.73,1.53-.42.33-.97.49-1.66.49s-1.14-.22-1.45-.65c-.31-.43-.42-1.03-.31-1.79l2.07-13.11c.41-2.35.22-4.1-.57-5.26-.8-1.16-2.16-1.74-4.09-1.74-2.52,0-4.53.78-6.01,2.33-1.49,1.56-2.44,3.63-2.85,6.22l-1.87,11.92c-.21,1.38-1.02,2.07-2.44,2.07Z"/>
        <path class="cls-3" d="M624.33,307.25c-.66,0-1.13-.22-1.43-.67-.29-.45-.39-1.05-.29-1.81l3.37-21.3c.14-.69.41-1.21.8-1.55s.94-.52,1.63-.52c.62,0,1.08.2,1.37.6.29.4.37.98.23,1.74l-.67,4.35-.41-.62c.86-1.97,2.13-3.49,3.81-4.56,1.68-1.07,3.67-1.61,5.99-1.61,1.87,0,3.43.37,4.69,1.11,1.26.74,2.16,1.88,2.7,3.42.54,1.54.61,3.5.23,5.88l-2.12,13.53c-.07.69-.31,1.2-.73,1.53-.42.33-.97.49-1.66.49s-1.14-.22-1.45-.65c-.31-.43-.42-1.03-.31-1.79l2.07-13.11c.41-2.35.22-4.1-.57-5.26-.8-1.16-2.16-1.74-4.09-1.74-2.52,0-4.53.78-6.01,2.33-1.49,1.56-2.44,3.63-2.85,6.22l-1.87,11.92c-.21,1.38-1.02,2.07-2.44,2.07Z"/>
        <path class="cls-3" d="M663.93,307.41c-2.38,0-4.46-.45-6.22-1.35-1.76-.9-3.12-2.19-4.07-3.86-.95-1.67-1.43-3.65-1.43-5.93,0-2.73.55-5.23,1.66-7.49,1.11-2.26,2.66-4.08,4.67-5.44,2-1.36,4.39-2.05,7.15-2.05,1.97,0,3.62.35,4.95,1.04,1.33.69,2.39,1.62,3.19,2.8.79,1.18,1.31,2.51,1.55,4.02.24,1.5.28,3.05.1,4.64-.07.59-.22.98-.47,1.17s-.62.29-1.14.29h-18.4l.42-2.75h17l-.93.67c.24-1.62.19-3.09-.16-4.41-.35-1.31-1.02-2.37-2.02-3.16-1-.79-2.38-1.19-4.15-1.19-1.87,0-3.42.42-4.67,1.27-1.24.85-2.22,1.93-2.93,3.24-.71,1.31-1.18,2.68-1.43,4.09l-.21,1.24c-.48,2.94-.04,5.3,1.35,7.1,1.38,1.8,3.51,2.7,6.38,2.7,1.24,0,2.45-.16,3.63-.47,1.17-.31,2.28-.81,3.32-1.5.48-.31.91-.46,1.27-.44s.66.14.88.36c.22.23.36.5.42.83.05.33,0,.67-.16,1.04-.16.36-.44.7-.86,1.01-1.17.83-2.56,1.46-4.15,1.89-1.59.43-3.11.65-4.56.65Z"/>
        <path class="cls-3" d="M689.22,307.41c-1.66,0-3.24-.2-4.74-.6-1.5-.4-2.81-.92-3.91-1.58-.41-.24-.7-.54-.85-.91-.16-.36-.21-.72-.16-1.06s.19-.64.42-.88c.22-.24.52-.38.88-.41.36-.03.77.07,1.22.31,1.11.66,2.26,1.14,3.47,1.45,1.21.31,2.45.47,3.73.47,1.87,0,3.33-.37,4.38-1.11s1.58-1.79,1.58-3.14c0-.86-.29-1.58-.86-2.15-.57-.57-1.41-.98-2.51-1.22l-4.87-1.19c-1.73-.42-3.08-1.17-4.07-2.25-.98-1.09-1.48-2.43-1.48-4.02,0-1.49.41-2.82,1.24-4.02.83-1.19,2.02-2.12,3.58-2.8s3.39-1.01,5.49-1.01c1.38,0,2.78.2,4.2.6,1.42.4,2.59.96,3.53,1.68.41.31.7.65.85,1.01.16.36.2.71.13,1.04s-.22.6-.47.8c-.24.21-.54.32-.91.34-.36.02-.77-.11-1.22-.39-.86-.66-1.83-1.13-2.9-1.42-1.07-.29-2.2-.44-3.37-.44-1.94,0-3.46.4-4.56,1.19-1.11.8-1.66,1.87-1.66,3.21,0,.83.26,1.55.78,2.15.52.6,1.3,1.03,2.33,1.27l4.92,1.19c1.83.45,3.26,1.18,4.28,2.2s1.53,2.34,1.53,3.96c0,2.42-.92,4.31-2.75,5.68-1.83,1.37-4.25,2.05-7.26,2.05Z"/>
        <path class="cls-3" d="M714.31,307.41c-1.66,0-3.24-.2-4.74-.6-1.5-.4-2.81-.92-3.91-1.58-.41-.24-.7-.54-.85-.91-.16-.36-.21-.72-.16-1.06s.19-.64.42-.88c.22-.24.52-.38.88-.41.36-.03.77.07,1.22.31,1.11.66,2.26,1.14,3.47,1.45,1.21.31,2.45.47,3.73.47,1.87,0,3.33-.37,4.38-1.11s1.58-1.79,1.58-3.14c0-.86-.29-1.58-.86-2.15-.57-.57-1.41-.98-2.51-1.22l-4.87-1.19c-1.73-.42-3.08-1.17-4.07-2.25-.98-1.09-1.48-2.43-1.48-4.02,0-1.49.41-2.82,1.24-4.02.83-1.19,2.02-2.12,3.58-2.8s3.39-1.01,5.49-1.01c1.38,0,2.78.2,4.2.6,1.42.4,2.59.96,3.53,1.68.41.31.7.65.85,1.01.16.36.2.71.13,1.04s-.22.6-.47.8c-.24.21-.54.32-.91.34-.36.02-.77-.11-1.22-.39-.86-.66-1.83-1.13-2.9-1.42-1.07-.29-2.2-.44-3.37-.44-1.94,0-3.46.4-4.56,1.19-1.11.8-1.66,1.87-1.66,3.21,0,.83.26,1.55.78,2.15.52.6,1.3,1.03,2.33,1.27l4.92,1.19c1.83.45,3.26,1.18,4.28,2.2s1.53,2.34,1.53,3.96c0,2.42-.92,4.31-2.75,5.68-1.83,1.37-4.25,2.05-7.26,2.05Z"/>
        <path class="cls-3" d="M731.78,307.3c-.66,0-1.13-.22-1.43-.65-.29-.43-.39-1.04-.29-1.84l3.42-21.36c.1-.69.35-1.21.75-1.55.4-.35.94-.52,1.63-.52s1.14.21,1.45.62c.31.41.4,1.02.26,1.81l-3.37,21.41c-.1.69-.36,1.21-.75,1.56-.4.34-.96.52-1.68.52ZM736.91,275.68c-.83,0-1.45-.21-1.87-.62-.42-.41-.59-.98-.52-1.71.03-.9.34-1.59.91-2.07.57-.48,1.32-.73,2.25-.73.83,0,1.45.2,1.87.6.42.4.59.98.52,1.74-.07.9-.38,1.59-.93,2.07-.55.48-1.3.73-2.23.73Z"/>
        <path class="cls-3" d="M753.24,307.41c-2.25,0-4.19-.45-5.83-1.35-1.64-.9-2.9-2.18-3.78-3.84-.88-1.66-1.32-3.63-1.32-5.91,0-2.14.32-4.12.96-5.93.64-1.81,1.55-3.41,2.72-4.79,1.17-1.38,2.57-2.44,4.17-3.19,1.61-.74,3.43-1.11,5.47-1.11,2.25,0,4.19.45,5.83,1.35,1.64.9,2.89,2.17,3.76,3.81.86,1.64,1.3,3.62,1.3,5.93,0,2.14-.31,4.12-.93,5.94-.62,1.81-1.52,3.4-2.7,4.77s-2.57,2.43-4.2,3.19c-1.62.76-3.44,1.14-5.44,1.14ZM753.39,304.04c1.9,0,3.52-.54,4.85-1.61,1.33-1.07,2.33-2.5,3.01-4.3s1.01-3.77,1.01-5.91c0-2.49-.6-4.37-1.79-5.65s-2.86-1.92-5-1.92c-1.9,0-3.52.54-4.85,1.61-1.33,1.07-2.34,2.49-3.03,4.25-.69,1.76-1.04,3.75-1.04,5.96,0,2.45.6,4.33,1.81,5.62s2.89,1.94,5.03,1.94Z"/>
        <path class="cls-3" d="M772.99,307.25c-.66,0-1.13-.22-1.43-.67-.29-.45-.39-1.05-.29-1.81l3.37-21.3c.14-.69.41-1.21.8-1.55s.94-.52,1.63-.52c.62,0,1.08.2,1.37.6.29.4.37.98.23,1.74l-.67,4.35-.41-.62c.86-1.97,2.13-3.49,3.81-4.56,1.68-1.07,3.67-1.61,5.99-1.61,1.87,0,3.43.37,4.69,1.11,1.26.74,2.16,1.88,2.7,3.42.54,1.54.61,3.5.23,5.88l-2.12,13.53c-.07.69-.31,1.2-.73,1.53-.42.33-.97.49-1.66.49s-1.14-.22-1.45-.65c-.31-.43-.42-1.03-.31-1.79l2.07-13.11c.41-2.35.22-4.1-.57-5.26-.8-1.16-2.16-1.74-4.09-1.74-2.52,0-4.53.78-6.01,2.33-1.49,1.56-2.44,3.63-2.85,6.22l-1.87,11.92c-.21,1.38-1.02,2.07-2.44,2.07Z"/>
        <path class="cls-3" d="M802.53,307.3c-.66,0-1.13-.22-1.43-.65-.29-.43-.39-1.04-.29-1.84l3.42-21.36c.1-.69.35-1.21.75-1.55.4-.35.94-.52,1.63-.52s1.14.21,1.45.62c.31.41.4,1.02.26,1.81l-3.37,21.41c-.1.69-.36,1.21-.75,1.56-.4.34-.96.52-1.68.52ZM807.66,275.68c-.83,0-1.45-.21-1.87-.62-.42-.41-.59-.98-.52-1.71.03-.9.34-1.59.91-2.07.57-.48,1.32-.73,2.25-.73.83,0,1.45.2,1.87.6.42.4.59.98.52,1.74-.07.9-.38,1.59-.93,2.07-.55.48-1.3.73-2.23.73Z"/>
        <path class="cls-3" d="M839.7,307.41c-1.55,0-3.09-.12-4.61-.36s-2.97-.62-4.35-1.14c-1.38-.52-2.64-1.21-3.78-2.07-.45-.28-.73-.6-.86-.98-.12-.38-.14-.77-.05-1.17.09-.4.26-.73.52-1.01.26-.28.6-.43,1.01-.47.41-.03.86.1,1.35.42,1.66,1.14,3.41,1.93,5.26,2.36s3.81.65,5.88.65c2.8,0,5.04-.58,6.74-1.74,1.69-1.16,2.54-2.74,2.54-4.74,0-1.38-.5-2.57-1.5-3.55-1-.99-2.76-1.75-5.29-2.31l-5.34-1.3c-2.42-.59-4.35-1.59-5.8-3.01-1.45-1.42-2.18-3.46-2.18-6.12,0-1.66.35-3.16,1.06-4.51s1.68-2.5,2.93-3.45,2.7-1.68,4.35-2.2c1.66-.52,3.42-.78,5.29-.78,2,0,4.06.29,6.17.88,2.11.59,3.96,1.55,5.55,2.9.38.28.63.61.75,1.01.12.4.14.79.05,1.17-.09.38-.27.69-.54.93-.28.24-.62.37-1.04.39-.42.02-.88-.15-1.4-.49-1.35-1.07-2.86-1.84-4.54-2.31-1.68-.47-3.38-.7-5.11-.7s-3.3.29-4.72.86c-1.42.57-2.52,1.37-3.32,2.38-.8,1.02-1.19,2.24-1.19,3.65,0,1.73.44,3.01,1.32,3.86.88.85,2.19,1.5,3.91,1.94l5.39,1.24c3.25.76,5.64,1.91,7.18,3.45,1.54,1.54,2.31,3.39,2.31,5.57,0,1.73-.36,3.27-1.09,4.61s-1.73,2.47-3.01,3.37c-1.28.9-2.76,1.58-4.43,2.05-1.68.47-3.48.7-5.42.7Z"/>
        <path class="cls-3" d="M869.55,307.41c-2.25,0-4.19-.45-5.83-1.35-1.64-.9-2.9-2.18-3.78-3.84-.88-1.66-1.32-3.63-1.32-5.91,0-2.14.32-4.12.96-5.93.64-1.81,1.55-3.41,2.72-4.79,1.17-1.38,2.57-2.44,4.17-3.19,1.61-.74,3.43-1.11,5.47-1.11,2.25,0,4.19.45,5.83,1.35,1.64.9,2.89,2.17,3.76,3.81.86,1.64,1.3,3.62,1.3,5.93,0,2.14-.31,4.12-.93,5.94-.62,1.81-1.52,3.4-2.7,4.77s-2.57,2.43-4.2,3.19c-1.62.76-3.44,1.14-5.44,1.14ZM869.71,304.04c1.9,0,3.52-.54,4.85-1.61,1.33-1.07,2.33-2.5,3.01-4.3s1.01-3.77,1.01-5.91c0-2.49-.6-4.37-1.79-5.65s-2.86-1.92-5-1.92c-1.9,0-3.52.54-4.85,1.61-1.33,1.07-2.34,2.49-3.03,4.25-.69,1.76-1.04,3.75-1.04,5.96,0,2.45.6,4.33,1.81,5.62s2.89,1.94,5.03,1.94Z"/>
        <path class="cls-3" d="M898.68,307.41c-2.49,0-4.54-.47-6.17-1.4-1.62-.93-2.84-2.25-3.65-3.94-.81-1.69-1.22-3.65-1.22-5.86,0-1.87.26-3.69.78-5.47.52-1.78,1.33-3.38,2.44-4.79,1.11-1.42,2.5-2.55,4.2-3.4,1.69-.85,3.71-1.27,6.06-1.27,1.31,0,2.58.17,3.81.52,1.23.35,2.29.83,3.19,1.45.48.28.83.61,1.04,1.01.21.4.28.78.21,1.14-.07.36-.22.67-.44.93-.23.26-.51.41-.86.44-.35.04-.71-.07-1.09-.31-.86-.62-1.76-1.07-2.7-1.35-.93-.28-1.94-.41-3.01-.41-1.69,0-3.13.33-4.3.98-1.17.66-2.13,1.54-2.88,2.64-.74,1.11-1.29,2.34-1.63,3.71-.35,1.37-.52,2.74-.52,4.12,0,2.35.56,4.24,1.68,5.68,1.12,1.43,2.98,2.15,5.57,2.15.83,0,1.69-.13,2.59-.39.9-.26,1.8-.68,2.7-1.27.34-.24.69-.34,1.04-.29.34.05.63.2.86.44.22.24.37.53.44.86.07.33.04.67-.08,1.01-.12.35-.39.66-.8.93-.93.66-2.07,1.17-3.42,1.55s-2.63.57-3.84.57Z"/>
        <path class="cls-3" d="M913.4,307.3c-.66,0-1.13-.22-1.43-.65-.29-.43-.39-1.04-.29-1.84l3.42-21.36c.1-.69.35-1.21.75-1.55.4-.35.94-.52,1.63-.52s1.14.21,1.45.62c.31.41.4,1.02.26,1.81l-3.37,21.41c-.1.69-.36,1.21-.75,1.56-.4.34-.96.52-1.68.52ZM918.53,275.68c-.83,0-1.45-.21-1.87-.62-.42-.41-.59-.98-.52-1.71.03-.9.34-1.59.91-2.07.57-.48,1.32-.73,2.25-.73.83,0,1.45.2,1.87.6.42.4.59.98.52,1.74-.07.9-.38,1.59-.93,2.07-.55.48-1.3.73-2.23.73Z"/>
        <path class="cls-3" d="M931.96,307.41c-1.45,0-2.81-.33-4.07-.99-1.26-.66-2.27-1.55-3.03-2.7-.76-1.14-1.14-2.44-1.14-3.89,0-1.8.49-3.24,1.48-4.33.98-1.09,2.53-1.89,4.64-2.41,2.11-.52,4.82-.78,8.14-.78h4.15l-.42,2.75h-3.16c-2.66,0-4.76.14-6.3.42-1.54.28-2.63.74-3.29,1.4s-.99,1.55-.99,2.7c0,1.52.51,2.68,1.53,3.47,1.02.8,2.19,1.19,3.5,1.19s2.46-.28,3.55-.83c1.09-.55,2.01-1.37,2.77-2.46.76-1.09,1.26-2.38,1.5-3.86l.98-6.32c.34-2,.09-3.52-.75-4.56s-2.38-1.55-4.59-1.55c-1.28,0-2.49.12-3.63.36-1.14.24-2.28.69-3.42,1.35-.45.24-.86.35-1.24.31-.38-.03-.69-.18-.93-.44-.24-.26-.38-.56-.41-.91-.04-.35.05-.69.26-1.04.21-.34.57-.66,1.09-.93,1.31-.73,2.74-1.25,4.28-1.58,1.54-.33,3.03-.49,4.48-.49,2.35,0,4.22.44,5.62,1.32s2.36,2.12,2.88,3.71c.52,1.59.6,3.46.26,5.6l-2.12,13.32c-.07.69-.3,1.21-.7,1.56-.4.34-.92.52-1.58.52-.62,0-1.08-.21-1.37-.62-.29-.42-.39-1-.29-1.76l.67-4.2.41.52c-.45,1.38-1.13,2.53-2.05,3.45s-1.96,1.6-3.14,2.05c-1.18.45-2.37.67-3.58.67Z"/>
        <path class="cls-3" d="M958.91,307.41c-2.45,0-4.25-.73-5.39-2.2-1.14-1.47-1.49-3.64-1.04-6.5l4.25-26.59c.1-.69.35-1.21.75-1.55.4-.35.94-.52,1.63-.52.66,0,1.14.22,1.45.65.31.43.4,1.05.26,1.84l-4.15,26.18c-.31,1.83-.17,3.14.42,3.94.59.79,1.57,1.19,2.95,1.19.48,0,.86-.03,1.11-.08.26-.05.47-.08.65-.08.28,0,.48.09.62.26.14.17.21.5.21.98,0,.66-.16,1.17-.47,1.53-.31.36-.71.61-1.19.75-.28.03-.61.08-1.01.13s-.75.08-1.06.08Z"/>
        <path class="cls-3" d="M968.71,307.3c-.66,0-1.13-.22-1.43-.65-.29-.43-.39-1.04-.29-1.84l3.42-21.36c.1-.69.35-1.21.75-1.55.4-.35.94-.52,1.63-.52s1.14.21,1.45.62c.31.41.4,1.02.26,1.81l-3.37,21.41c-.1.69-.36,1.21-.75,1.56-.4.34-.96.52-1.68.52ZM973.84,275.68c-.83,0-1.45-.21-1.87-.62-.42-.41-.59-.98-.52-1.71.03-.9.34-1.59.91-2.07.57-.48,1.32-.73,2.25-.73.83,0,1.45.2,1.87.6.42.4.59.98.52,1.74-.07.9-.38,1.59-.93,2.07-.55.48-1.3.73-2.23.73Z"/>
      </g>
      <path class="cls-4" d="M405.51,217.44l-58.09-193.81c-2.06-7.33-5.44-12.79-10.13-16.34-4.69-3.55-10.59-5.32-17.68-5.32s-12.68,1.37-17.37,4.12c-4.69,2.75-8.98,7.35-12.88,13.76l-61.87,100.3h.03l-60.84,98.66c-3.66,5.72-5.09,10.93-4.29,15.62.8,4.69,3.26,8.41,7.38,11.16,4.06,2.72,9.27,4.09,15.57,4.12h199.85c5.38-.06,9.96-1.17,13.79-3.43,3.89-2.29,6.47-5.84,7.73-10.64,1.26-4.81.86-10.87-1.2-18.2ZM366.38,213.45c-.79,3.09-2.44,5.36-4.95,6.8-2.44,1.44-5.36,2.16-8.8,2.2h-127.7c-4.05-.03-7.35-.89-9.97-2.61-2.65-1.79-4.19-4.16-4.71-7.15-.52-2.99.41-6.32,2.75-10l26.67-43.26,8.76-14.19,3.44-5.57,39.52-64.12c2.47-4.09,5.22-7.01,8.25-8.76,2.99-1.79,6.67-2.65,11.07-2.65s8.32,1.13,11.31,3.4c3.02,2.27,5.15,5.74,6.49,10.45l20.03,66.8,5.26,17.59,11.82,39.45c1.31,4.67,1.58,8.56.76,11.62Z"/>
      <path class="cls-2" d="M366.38,213.33c-.79,3.09-2.44,5.36-4.95,6.8-2.44,1.44-5.36,2.16-8.8,2.2h-127.7c-4.05-.03-7.35-.89-9.97-2.61-2.65-1.79-4.19-4.16-4.71-7.15-.52-2.99.41-6.32,2.75-10l26.67-43.26,8.76-14.19c7.87-3.61,15.43-5.67,22.82-6.22,5.6-.41,11.07.07,16.5,1.44,3.85,1,7.56,2.37,11.13,3.68,5.09,1.86,9.86,3.64,14.71,4.19,4.57.52,9.28-.07,14.16-.89,1.17-.17,2.34-.38,3.51-.58,2.37-.41,4.67-.82,7.04-1.17,3.51-.48,6.91-.79,10.24-.89l5.26,17.59,11.82,39.45c1.31,4.67,1.58,8.56.76,11.62Z"/>
      <path class="cls-4" d="M689.88,230.29l-35.07-117.02c-1.25-4.43-3.29-7.71-6.12-9.86-2.84-2.14-6.4-3.22-10.69-3.22s-7.65.83-10.48,2.49c-2.84,1.66-5.43,4.43-7.78,8.3l-74.07,120.13c-2.21,3.46-3.08,6.61-2.59,9.44.49,2.84,1.97,5.08,4.46,6.74,2.49,1.66,5.67,2.49,9.54,2.49s6.88-.76,9.44-2.28c2.56-1.52,4.74-3.8,6.54-6.85l14.23-24.28h68.6l4.94,19.3c1.52,4.98,3.49,8.58,5.91,10.79,2.42,2.21,5.98,3.32,10.69,3.32,3.32,0,6.15-.69,8.51-2.08,2.35-1.38,3.91-3.53,4.67-6.43.76-2.9.52-6.57-.73-11ZM634.28,136.09h.42l14.68,55.19h-47.49l32.4-55.19Z"/>
      <path class="cls-4" d="M818.85,112.75c-8.65-7.26-21.2-10.89-37.66-10.89h-43.57c-5.39,0-9.65,1.32-12.76,3.94-3.11,2.63-5.15,6.71-6.12,12.24l-17.84,112.87c-.97,6.09-.24,10.76,2.18,14.01,2.42,3.25,6.12,4.88,11.1,4.88,5.39,0,9.65-1.32,12.76-3.94,3.11-2.63,5.08-6.64,5.91-12.03l6.64-42.12h17.01c4.7,0,8.4.9,11.1,2.7,2.7,1.8,4.8,4.84,6.33,9.13l12.24,32.37c1.94,4.84,4.18,8.37,6.74,10.58,2.56,2.21,5.98,3.32,10.27,3.32,4.56,0,8.12-.83,10.69-2.49,2.56-1.66,4.08-3.97,4.56-6.95.48-2.97-.17-6.67-1.97-11.1l-7.88-20.54c-2.49-6.5-5.88-11.62-10.17-15.35-1.85-1.61-3.94-2.85-6.24-3.76,4.29-.8,8.35-1.95,12.16-3.5,8.51-3.46,15.22-8.75,20.13-15.87,4.91-7.12,7.37-16.22,7.37-27.28,0-12.86-4.32-22.93-12.97-30.19ZM794.06,162.54c-4.56,3.81-11.07,5.71-19.5,5.71h-31.54l6.43-41.29h26.56c8.71,0,15.04,1.52,18.99,4.56,3.94,3.04,5.91,7.75,5.91,14.11,0,7.47-2.28,13.11-6.85,16.91Z"/>
      <path class="cls-4" d="M973.49,230.29l-35.07-117.02c-1.25-4.43-3.29-7.71-6.12-9.86-2.84-2.14-6.4-3.22-10.69-3.22s-7.65.83-10.48,2.49c-2.84,1.66-5.43,4.43-7.78,8.3l-74.07,120.13c-2.21,3.46-3.08,6.61-2.59,9.44.49,2.84,1.97,5.08,4.46,6.74,2.49,1.66,5.67,2.49,9.54,2.49s6.88-.76,9.44-2.28c2.56-1.52,4.74-3.8,6.54-6.85l14.23-24.28h68.6l4.94,19.3c1.52,4.98,3.49,8.58,5.91,10.79,2.42,2.21,5.98,3.32,10.69,3.32,3.32,0,6.15-.69,8.51-2.08,2.35-1.38,3.91-3.53,4.67-6.43.76-2.9.52-6.57-.73-11ZM917.88,136.09h.42l14.68,55.19h-47.49l32.4-55.19Z"/>
      <path class="cls-4" d="M547.47,113.27c-.69-2.9-2.28-5.26-4.77-7.05-2.49-1.8-5.88-2.7-10.17-2.7h-81.96c-4.84,0-8.71,1.35-11.62,4.05-2.9,2.7-4.36,6.54-4.36,11.51,0,3.6,1.21,6.36,3.63,8.3,2.42,1.94,5.91,2.9,10.48,2.9h57.13l-80.37,88.6c-3.46,3.87-5.81,7.64-7.05,11.31-1.24,3.67-1.49,6.95-.73,9.86.76,2.9,2.25,5.26,4.46,7.05,2.21,1.8,5.12,2.7,8.71,2.7h86.52c4.98,0,8.89-1.38,11.72-4.15,2.83-2.77,4.25-6.64,4.25-11.62,0-3.46-1.25-6.15-3.74-8.09-2.49-1.94-5.95-2.9-10.37-2.9h-60.24l80.78-89.22c3.32-3.6,5.6-7.19,6.85-10.79,1.25-3.59,1.52-6.85.83-9.75Z"/>
      <path class="cls-4" d="M169.05,104.34c-2.35-2.77-5.95-4.15-10.79-4.15-3.87,0-7.16.66-9.86,1.97-2.7,1.32-5.29,3.63-7.78,6.95l-58.3,82.9-30.92-80.2c-1.66-4.29-3.63-7.29-5.91-9.03-2.28-1.73-5.43-2.59-9.44-2.59-4.57,0-8.13,1.11-10.69,3.32-2.56,2.21-4.25,5.67-5.08,10.37L1.19,233.4c-.7,4.98.03,8.89,2.18,11.72,2.14,2.84,5.77,4.25,10.89,4.25,4.43,0,7.99-1.14,10.69-3.42,2.7-2.28,4.39-5.63,5.08-10.06l12.07-76.92,24.45,60.11c1.25,3.04,2.8,5.26,4.67,6.64,1.87,1.38,4.39,2.08,7.57,2.08,2.77,0,5.12-.48,7.05-1.45,1.94-.97,3.8-2.83,5.6-5.6l43.84-62.04-11.89,74.69c-.69,4.98.14,8.89,2.49,11.72,2.35,2.84,5.88,4.25,10.58,4.25s8.2-1.14,10.89-3.42c2.7-2.28,4.32-5.63,4.88-10.06l19.09-119.93c.83-4.98.07-8.85-2.28-11.62Z"/>
    </g>
  </g>
</svg>